<svg width="74" height="60" fill="none" xmlns="http://www.w3.org/2000/svg"><path d="M5.88 8.32 4.224 7.199l-.008.012L5.88 8.32Zm34.32 0-1.664 1.11.008.011L40.2 8.32Zm0 43.52-1.656-1.121-.008.012L40.2 51.84Zm-34.32 0-1.664 1.11.008.011L5.88 51.84ZM30.36 17.6l-1.857.743.005.012 1.852-.755Zm-14.56 0 1.852.755.005-.012L15.8 17.6Zm-1.12 21.44-1.97.35.002.008 1.968-.358Zm2.56 5.76-1.518 1.302.024.029.027.028L17.24 44.8Zm11.6 0-1.492-1.332-.003.003L28.84 44.8Zm2.64-5.76 1.968.358.001-.008-1.969-.35ZM2.6 30c0-8.946 1.72-15.735 4.944-20.57L4.216 7.21C.399 12.936-1.4 20.6-1.4 30h4ZM7.536 9.44c3.111-4.596 8.135-7.04 15.544-7.04v-4c-8.378 0-14.82 2.836-18.856 8.799l3.312 2.242Zm15.544-7.04c7.41 0 12.399 2.444 15.456 7.03l3.328-2.22C37.881 1.237 31.457-1.6 23.08-1.6v4Zm15.464 7.041C41.814 14.274 43.56 21.059 43.56 30h4c0-9.405-1.828-17.074-5.704-22.801l-3.312 2.242ZM43.56 30c0 9.053-1.748 15.889-5.016 20.719l3.312 2.242C45.734 47.231 47.56 39.507 47.56 30h-4Zm-5.024 20.73c-3.057 4.586-8.046 7.03-15.456 7.03v4c8.377 0 14.801-2.836 18.784-8.81l-3.328-2.22ZM23.08 57.76c-7.409 0-12.433-2.444-15.544-7.041l-3.312 2.242c4.035 5.963 10.478 8.799 18.856 8.799v-4ZM7.544 50.73C4.323 45.899 2.6 39.059 2.6 30h-4c0 9.502 1.797 17.222 5.616 22.95l3.328-2.22ZM34.12 30c0-5.484-.59-9.92-1.908-13.155l-3.704 1.51C29.537 20.88 30.12 24.71 30.12 30h4Zm-1.903-13.143c-.729-1.822-1.895-3.285-3.522-4.269-1.606-.97-3.517-1.388-5.615-1.388v4c1.582 0 2.724.315 3.546.812.798.482 1.432 1.22 1.877 2.33l3.714-1.485ZM23.08 11.2c-2.098 0-4.01.418-5.614 1.388-1.628.984-2.794 2.447-3.523 4.27l3.714 1.485c.445-1.112 1.079-1.849 1.878-2.331.82-.497 1.963-.812 3.545-.812v-4Zm-9.132 5.645C12.63 20.08 12.04 24.516 12.04 30h4c0-5.29.583-9.12 1.612-11.645l-3.704-1.51ZM12.04 30c0 3.693.216 6.833.67 9.39l3.94-.7c-.4-2.243-.61-5.13-.61-8.69h-4Zm.672 9.398c.477 2.621 1.454 4.89 3.01 6.704l3.037-2.604c-1.005-1.172-1.735-2.744-2.111-4.816l-3.936.716Zm3.06 6.76c1.819 1.965 4.37 2.802 7.308 2.802v-4c-2.182 0-3.524-.602-4.372-1.519l-2.935 2.718Zm7.308 2.802c2.933 0 5.481-.836 7.255-2.831l-2.99-2.658c-.786.885-2.078 1.489-4.265 1.489v4Zm7.252-2.828c1.622-1.817 2.636-4.095 3.116-6.734l-3.936-.716c-.373 2.054-1.12 3.616-2.164 4.786l2.984 2.664Zm3.117-6.742c.455-2.557.671-5.697.671-9.39h-4c0 3.56-.21 6.447-.61 8.69l3.94.7Zm17.898-25.07h-2v2h2v-2Zm0-12.72v-2h-2v2h2Zm22.16 0h2v-2h-2v2Zm0 58.4v2h2v-2h-2Zm-14.24 0h-2v2h2v-2Zm0-45.68h2v-2h-2v2Zm-5.92 0V1.6h-4v12.72h4Zm-2-10.72h22.16v-4h-22.16v4Zm20.16-2V60h4V1.6h-4Zm2 56.4h-14.24v4h14.24v-4Zm-12.24 2V14.32h-4V60h4Zm-2-47.68h-7.92v4h7.92v-4Z" fill="#04A493"/></svg>